# xmcd
#
# Track frame offsets: 
#        150
#        18071
#        37575
#        54459
#        69710
#        91567
#        121105
#        144811
#        159855
#        176666
#        195782
#        216619
#        236337
#        251941
#        271114
#        287101
#
# Disc length: 3952 seconds
#
# Revision: 0
# Processed by: cddbd v1.5.2PL0 Copyright (c) Steve Scherf et al.
# Submitted via: ExactAudioCopy v1.0b1
#
DISCID=c90f6e10
DTITLE=Heigeign - Indigo
DYEAR=2011
DGENRE=
TTITLE0=Wia höcha da Turm
TTITLE1=Uccu vászontarisznya
TTITLE2=Is schon vorbei!
TTITLE3=Zwifocha, blau
TTITLE4=Wia vüle Männer?
TTITLE5=Zelena sanja
TTITLE6=Wia sogt ma zum Blues auf Gschead?
TTITLE7=Mei Biawl hot schworzi Augn
TTITLE8=Bist a Tei va mia
TTITLE9=MixoUngrod
TTITLE10=Fliagnpülz
TTITLE11=Mei Bruida Veidl
TTITLE12=Vinograd
TTITLE13=Zeitmaschin'
TTITLE14=Gehts Buam, gemma hoam
TTITLE15=Blau, ois so blau
EXTD=
EXTT0=
EXTT1=
EXTT2=
EXTT3=
EXTT4=
EXTT5=
EXTT6=
EXTT7=
EXTT8=
EXTT9=
EXTT10=
EXTT11=
EXTT12=
EXTT13=
EXTT14=
EXTT15=
PLAYORDER=
